<svg width="25" height="27" viewBox="0 0 25 27" fill="none" xmlns="http://www.w3.org/2000/svg">
<path d="M23.4375 13.6755C23.4375 9.76923 21.3379 6.20477 17.9688 4.25165C14.5508 2.24969 10.4004 2.24969 7.03125 4.25165C3.61328 6.20477 1.5625 9.76923 1.5625 13.6755C1.5625 17.6306 3.61328 21.195 7.03125 23.1481C10.4004 25.1501 14.5508 25.1501 17.9688 23.1481C21.3379 21.195 23.4375 17.6306 23.4375 13.6755ZM0 13.6755C0 9.23212 2.34375 5.13055 6.25 2.88446C10.1074 0.638367 14.8438 0.638367 18.75 2.88446C22.6074 5.13055 25 9.23212 25 13.6755C25 18.1677 22.6074 22.2692 18.75 24.5153C14.8438 26.7614 10.1074 26.7614 6.25 24.5153C2.34375 22.2692 0 18.1677 0 13.6755ZM6.29883 17.1911L7.71484 16.4587C8.1543 17.3376 9.7168 19.1931 12.5 19.1931C15.2344 19.1931 16.7969 17.3376 17.2363 16.4587L18.6523 17.1911C18.0176 18.4118 15.9668 20.7067 12.5 20.7067C8.98438 20.7067 6.93359 18.4118 6.29883 17.1911ZM10.6934 12.7966C9.61914 11.3806 7.51953 11.3806 6.44531 12.7966L5.22461 11.8688C6.88477 9.62274 10.2539 9.62274 11.9141 11.8688L10.6934 12.7966ZM14.2578 12.7966L13.0371 11.8688C14.6973 9.62274 18.0664 9.62274 19.7266 11.8688L18.5059 12.7966C17.4316 11.3806 15.332 11.3806 14.2578 12.7966Z" fill="#54EC33"/>
</svg>
