<svg width="35" height="34" viewBox="0 0 35 34" fill="none" xmlns="http://www.w3.org/2000/svg">
<g filter="url(#filter0_d_419_6700)">
<path d="M17.5 25.125C21.9434 25.125 26.0449 22.7812 28.291 18.875C30.5371 15.0176 30.5371 10.2812 28.291 6.375C26.0449 2.51758 21.9434 0.125 17.5 0.125C13.0078 0.125 8.90625 2.51758 6.66016 6.375C4.41406 10.2812 4.41406 15.0176 6.66016 18.875C8.90625 22.7812 13.0078 25.125 17.5 25.125ZM11.2988 16.1406L12.7148 15.4082C13.1543 16.2871 14.7168 18.1426 17.5 18.1426C20.2344 18.1426 21.7969 16.2871 22.2363 15.4082L23.6523 16.1406C23.0176 17.3613 20.9668 19.6562 17.5 19.6562C13.9844 19.6562 11.9336 17.3613 11.2988 16.1406ZM15.6934 11.7461C14.6191 10.3301 12.5195 10.3301 11.4453 11.7461L10.2246 10.8184C11.8848 8.57227 15.2539 8.57227 16.9141 10.8184L15.6934 11.7461ZM19.2578 11.7461L18.0371 10.8184C19.6973 8.57227 23.0664 8.57227 24.7266 10.8184L23.5059 11.7461C22.4316 10.3301 20.332 10.3301 19.2578 11.7461Z" fill="#54EC33"/>
<path d="M28.291 18.875L27.4268 18.3718L27.4241 18.3765L28.291 18.875ZM28.291 6.375L29.1579 5.87652L29.1552 5.87181L28.291 6.375ZM6.66016 6.375L5.79597 5.8718L5.79325 5.87653L6.66016 6.375ZM6.66016 18.875L7.52708 18.3765L7.52433 18.3718L6.66016 18.875ZM11.2988 16.1406L10.8394 15.2524L9.94925 15.7128L10.4116 16.602L11.2988 16.1406ZM12.7148 15.4082L13.6093 14.961L13.1559 14.0542L12.2554 14.52L12.7148 15.4082ZM22.2363 15.4082L22.6958 14.52L21.7953 14.0542L21.3419 14.961L22.2363 15.4082ZM23.6523 16.1406L24.5396 16.602L25.0019 15.7128L24.1118 15.2524L23.6523 16.1406ZM15.6934 11.7461L14.8967 12.3505L15.5016 13.1479L16.2984 12.5423L15.6934 11.7461ZM11.4453 11.7461L10.8402 12.5423L11.6371 13.1479L12.242 12.3505L11.4453 11.7461ZM10.2246 10.8184L9.42043 10.224L8.83393 11.0175L9.61953 11.6145L10.2246 10.8184ZM16.9141 10.8184L17.5191 11.6145L18.3047 11.0175L17.7182 10.224L16.9141 10.8184ZM19.2578 11.7461L18.6527 12.5423L19.4496 13.1479L20.0545 12.3505L19.2578 11.7461ZM18.0371 10.8184L17.2329 10.224L16.6464 11.0175L17.432 11.6145L18.0371 10.8184ZM24.7266 10.8184L25.3316 11.6145L26.1172 11.0175L25.5307 10.224L24.7266 10.8184ZM23.5059 11.7461L22.7092 12.3505L23.3141 13.1479L24.1109 12.5423L23.5059 11.7461ZM17.5 26.125C22.2995 26.125 26.7326 23.5915 29.1579 19.3735L27.4241 18.3765C25.3573 21.971 21.5872 24.125 17.5 24.125V26.125ZM29.1552 19.3782C31.5835 15.2078 31.5803 10.0894 29.1579 5.87653L27.4241 6.87347C29.4939 10.4731 29.4907 14.8273 27.4268 18.3718L29.1552 19.3782ZM29.1552 5.87181C26.7332 1.71222 22.3056 -0.875 17.5 -0.875V1.125C21.5812 1.125 25.3567 3.32294 27.4268 6.87819L29.1552 5.87181ZM17.5 -0.875C12.6478 -0.875 8.21913 1.71032 5.79598 5.87181L7.52433 6.87819C9.59337 3.32483 13.3678 1.125 17.5 1.125V-0.875ZM5.79325 5.87653C3.37083 10.0894 3.36766 15.2078 5.79598 19.3782L7.52433 18.3718C5.46046 14.8273 5.4573 10.4731 7.52706 6.87347L5.79325 5.87653ZM5.79325 19.3735C8.21968 23.5933 12.6538 26.125 17.5 26.125V24.125C13.3618 24.125 9.59282 21.9692 7.52706 18.3765L5.79325 19.3735ZM11.7583 17.0288L13.1743 16.2964L12.2554 14.52L10.8394 15.2524L11.7583 17.0288ZM11.8204 15.8554C12.3755 16.9656 14.2312 19.1426 17.5 19.1426V17.1426C15.2024 17.1426 13.9331 15.6086 13.6093 14.961L11.8204 15.8554ZM17.5 19.1426C20.725 19.1426 22.5785 16.9599 23.1308 15.8554L21.3419 14.961C21.0152 15.6143 19.7437 17.1426 17.5 17.1426V19.1426ZM21.7769 16.2964L23.1929 17.0288L24.1118 15.2524L22.6958 14.52L21.7769 16.2964ZM22.7651 15.6793C22.2487 16.6724 20.49 18.6562 17.5 18.6562V20.6562C21.4436 20.6562 23.7864 18.0503 24.5396 16.602L22.7651 15.6793ZM17.5 18.6562C14.4573 18.6562 12.7002 16.6681 12.186 15.6793L10.4116 16.602C11.167 18.0546 13.5115 20.6562 17.5 20.6562V18.6562ZM16.4901 11.1417C15.0157 9.19821 12.123 9.19821 10.6486 11.1417L12.242 12.3505C12.9161 11.4619 14.2226 11.4619 14.8967 12.3505L16.4901 11.1417ZM12.0504 10.9499L10.8297 10.0222L9.61953 11.6145L10.8402 12.5423L12.0504 10.9499ZM11.0288 11.4128C12.2892 9.70747 14.8495 9.70747 16.1099 11.4128L17.7182 10.224C15.6584 7.43706 11.4803 7.43706 9.42043 10.224L11.0288 11.4128ZM16.309 10.0222L15.0883 10.9499L16.2984 12.5423L17.5191 11.6145L16.309 10.0222ZM19.8629 10.9499L18.6422 10.0222L17.432 11.6145L18.6527 12.5423L19.8629 10.9499ZM18.8413 11.4128C20.1017 9.70747 22.662 9.70747 23.9224 11.4128L25.5307 10.224C23.4709 7.43706 19.2928 7.43706 17.2329 10.224L18.8413 11.4128ZM24.1215 10.0222L22.9008 10.9499L24.1109 12.5423L25.3316 11.6145L24.1215 10.0222ZM24.3026 11.1417C22.8282 9.19821 19.9355 9.19821 18.4611 11.1417L20.0545 12.3505C20.7286 11.4619 22.0351 11.4619 22.7092 12.3505L24.3026 11.1417Z" fill="black"/>
</g>
<defs>
<filter id="filter0_d_419_6700" x="0.414062" y="0.125" width="34.123" height="33" filterUnits="userSpaceOnUse" color-interpolation-filters="sRGB">
<feFlood flood-opacity="0" result="BackgroundImageFix"/>
<feColorMatrix in="SourceAlpha" type="matrix" values="0 0 0 0 0 0 0 0 0 0 0 0 0 0 0 0 0 0 127 0" result="hardAlpha"/>
<feOffset dy="4"/>
<feGaussianBlur stdDeviation="2"/>
<feComposite in2="hardAlpha" operator="out"/>
<feColorMatrix type="matrix" values="0 0 0 0 0 0 0 0 0 0 0 0 0 0 0 0 0 0 0.25 0"/>
<feBlend mode="normal" in2="BackgroundImageFix" result="effect1_dropShadow_419_6700"/>
<feBlend mode="normal" in="SourceGraphic" in2="effect1_dropShadow_419_6700" result="shape"/>
</filter>
</defs>
</svg>
