<svg width="43" height="38" viewBox="0 0 43 38" fill="none" xmlns="http://www.w3.org/2000/svg">
<path d="M1.17188 37.6875H0V35.3438H1.17188H2.34375V28.8984V28.5322L2.56348 28.2393L9.59473 18.9375L2.56348 9.70898L2.34375 9.41602V8.97656V2.53125H1.17188H0V0.1875H1.17188H26.9531H28.125V2.53125H26.9531H25.7812V8.97656V9.41602L25.4883 9.70898L18.457 18.9375L20.1416 21.208C19.7754 22.0137 19.4092 22.8926 19.1895 23.7715L16.04 19.6699L15.4541 19.0107L16.04 18.2783L23.4375 8.61035V2.53125H4.6875V8.61035L12.0117 18.2783L12.5977 18.9375L12.0117 19.6699L4.6875 29.3379V35.3438H21.6797C22.4121 36.2959 23.2178 37.0283 24.1699 37.6875H1.17188ZM14.0625 30.6562H19.1895C19.4092 31.5352 19.7754 32.2676 20.1416 33H14.0625H8.20312H7.03125V31.8281V30.2168V29.7773L7.25098 29.4844L13.1104 22.3066L13.8428 21.4277L15.6738 22.8926L14.9414 23.8447L9.375 30.6562H14.0625ZM14.0625 16.1543L13.1104 14.9824L8.42285 9.12305L6.88477 7.21875H9.375H14.0625H18.75H21.167L19.6289 9.12305L14.9414 14.9824L14.0625 16.1543ZM11.792 9.5625L14.0625 12.4189L16.2598 9.5625H14.0625H11.792ZM31.6406 35.3438C34.5703 35.3438 37.207 33.8057 38.6719 31.2422C40.21 28.752 40.21 25.6025 38.6719 23.0391C37.207 20.5488 34.5703 18.9375 31.6406 18.9375C28.6377 18.9375 26.001 20.5488 24.5361 23.0391C22.998 25.6025 22.998 28.752 24.5361 31.2422C26.001 33.8057 28.6377 35.3438 31.6406 35.3438ZM31.6406 16.5938C35.376 16.5938 38.8184 18.6445 40.7227 21.8672C42.627 25.1631 42.627 29.1914 40.7227 32.4141C38.8184 35.71 35.376 37.6875 31.6406 37.6875C27.832 37.6875 24.3896 35.71 22.4854 32.4141C20.5811 29.1914 20.5811 25.1631 22.4854 21.8672C24.3896 18.6445 27.832 16.5938 31.6406 16.5938ZM32.8125 21.2812V22.4531V25.9688H35.1562H36.3281V28.3125H35.1562H31.6406H30.4688V27.1406V22.4531V21.2812H32.8125Z" fill="#54EC33"/>
</svg>
