<svg width="38" height="38" viewBox="0 0 38 38" fill="none" xmlns="http://www.w3.org/2000/svg">
<path d="M20.3613 1.92254L23.6572 5.1452H29.6631H32.0068V7.48895V13.4948L35.8154 17.3766L37.5 18.988L35.8154 20.6725L32.0068 24.4811V30.487V32.8307H29.6631H23.6572L20.3613 36.1266L18.75 37.738L17.0654 36.1266L13.8428 32.8307H7.83691H5.49316V30.487V24.4811L1.61133 20.6725L0 18.988L1.61133 17.3766L5.49316 13.4948V7.48895V5.1452H7.83691H13.8428L17.0654 1.92254L18.75 0.237968L20.3613 1.92254ZM23.6572 7.48895H22.6318L21.9727 6.82977L18.75 3.60711L15.4541 6.82977L14.7949 7.48895H13.8428H7.83691V13.4948V14.5202L7.10449 15.1794L3.2959 18.988L7.10449 22.8698L7.83691 23.529V24.4811V30.487H13.8428H14.7949L15.4541 31.2194L18.75 34.4421L21.9727 31.2194L22.6318 30.487H23.6572H29.6631V24.4811V23.529L30.3223 22.8698L34.1309 18.988L30.3223 15.1794L29.5898 14.5202V13.4948V7.48895H23.6572ZM12.3047 13.7145C12.3047 11.5173 14.1357 9.61297 16.4062 9.61297H20.5078C23.0713 9.61297 25.1953 11.737 25.1953 14.3737C25.1953 16.1315 24.1699 17.7429 22.6318 18.5485L19.9219 19.9401V20.1598V21.3317H17.5781V20.1598V19.2077V18.4753L18.1641 18.1823L21.5332 16.4245C22.3389 16.0583 22.8516 15.2526 22.8516 14.3737C22.8516 13.0554 21.7529 11.9567 20.5078 11.9567H16.4062C15.3809 11.9567 14.6484 12.7624 14.6484 13.7145V14.3005H12.3047V13.7145ZM16.9922 23.6755H20.5078V27.1911H16.9922V23.6755Z" fill="#54EC33"/>
</svg>
